<svg xmlns="http://www.w3.org/2000/svg" xmlns:xlink="http://www.w3.org/1999/xlink" width="500" zoomAndPan="magnify" viewBox="0 0 375 374.999991" height="500" preserveAspectRatio="xMidYMid meet" version="1.2"><defs><clipPath id="955721a08d"><path d="M 0.140625 2.691406 L 368.859375 2.691406 L 368.859375 371.410156 L 0.140625 371.410156 Z M 0.140625 2.691406 "/></clipPath><clipPath id="1e838a7508"><path d="M 184.5 2.691406 C 82.679688 2.691406 0.140625 85.234375 0.140625 187.050781 C 0.140625 288.871094 82.679688 371.410156 184.5 371.410156 C 286.320312 371.410156 368.859375 288.871094 368.859375 187.050781 C 368.859375 85.234375 286.320312 2.691406 184.5 2.691406 Z M 184.5 2.691406 "/></clipPath><clipPath id="b72c74538a"><path d="M 0.140625 0.691406 L 368.859375 0.691406 L 368.859375 369.410156 L 0.140625 369.410156 Z M 0.140625 0.691406 "/></clipPath><clipPath id="2319b96070"><path d="M 184.5 0.691406 C 82.679688 0.691406 0.140625 83.234375 0.140625 185.050781 C 0.140625 286.871094 82.679688 369.410156 184.5 369.410156 C 286.320312 369.410156 368.859375 286.871094 368.859375 185.050781 C 368.859375 83.234375 286.320312 0.691406 184.5 0.691406 Z M 184.5 0.691406 "/></clipPath><clipPath id="7aaeaf30d1"><rect x="0" width="369" y="0" height="370"/></clipPath><clipPath id="bc5cc962b5"><rect x="0" width="243" y="0" height="375"/></clipPath><clipPath id="c580f99240"><rect x="0" width="369" y="0" height="375"/></clipPath></defs><g id="0e7fa8aa36"><rect x="0" width="375" y="0" height="374.999991" style="fill:#ffffff;fill-opacity:1;stroke:none;"/><rect x="0" width="375" y="0" height="374.999991" style="fill:#ffffff;fill-opacity:1;stroke:none;"/><g transform="matrix(1,0,0,1,3,0)"><g clip-path="url(#c580f99240)"><g clip-rule="nonzero" clip-path="url(#955721a08d)"><g clip-rule="nonzero" clip-path="url(#1e838a7508)"><g transform="matrix(1,0,0,1,-0.000000000000000444,2)"><g id="49d118d829" clip-path="url(#7aaeaf30d1)"><g clip-rule="nonzero" clip-path="url(#b72c74538a)"><g clip-rule="nonzero" clip-path="url(#2319b96070)"><path style=" stroke:none;fill-rule:nonzero;fill:#3287d7;fill-opacity:1;" d="M 0.140625 0.691406 L 368.859375 0.691406 L 368.859375 369.410156 L 0.140625 369.410156 Z M 0.140625 0.691406 "/></g></g></g></g></g></g><g transform="matrix(1,0,0,1,82,0)"><g id="d22c08b46e" clip-path="url(#bc5cc962b5)"><g style="fill:#ffffff;fill-opacity:1;"><g transform="translate(0.668242, 302.40643)"><path style="stroke:none" d="M 166.171875 5.765625 C 155.285156 5.765625 145.195312 1.765625 135.90625 -6.234375 C 126.625 -14.242188 121.984375 -25.613281 121.984375 -40.34375 C 121.984375 -49.625 123.023438 -60.507812 125.109375 -73 C 127.191406 -85.488281 129.507812 -99.578125 132.0625 -115.265625 C 123.738281 -107.253906 116.695312 -100.285156 110.9375 -94.359375 C 105.175781 -88.441406 99.8125 -82.359375 94.84375 -76.109375 C 89.882812 -69.867188 84.765625 -62.828125 79.484375 -54.984375 C 74.203125 -47.140625 67.878906 -37.296875 60.515625 -25.453125 C 56.347656 -19.046875 52.742188 -13.519531 49.703125 -8.875 C 46.660156 -4.238281 42.578125 -1.441406 37.453125 -0.484375 C 36.816406 -0.160156 36.019531 0 35.0625 0 C 34.101562 0 33.300781 0 32.65625 0 C 24.007812 0 17.445312 -2.398438 12.96875 -7.203125 C 8.488281 -12.003906 6.25 -16.96875 6.25 -22.09375 C 6.25 -49.300781 18.09375 -94.285156 41.78125 -157.046875 C 46.257812 -168.890625 51.378906 -182.332031 57.140625 -197.375 C 62.910156 -212.425781 68.914062 -227.632812 75.15625 -243 C 81.40625 -258.375 87.570312 -272.539062 93.65625 -285.5 C 99.738281 -298.46875 105.335938 -308.875 110.453125 -316.71875 C 115.578125 -324.5625 119.898438 -328.484375 123.421875 -328.484375 C 129.179688 -328.484375 133.984375 -326.882812 137.828125 -323.6875 C 141.671875 -320.488281 143.59375 -316.96875 143.59375 -313.125 C 143.59375 -308.320312 142.390625 -303.28125 139.984375 -298 C 137.585938 -292.71875 135.429688 -288.3125 133.515625 -284.78125 C 129.992188 -278.382812 125.507812 -269.257812 120.0625 -257.40625 C 114.613281 -245.5625 108.769531 -232.273438 102.53125 -217.546875 C 96.289062 -202.828125 90.207031 -187.617188 84.28125 -171.921875 C 78.363281 -156.234375 72.921875 -141.265625 67.953125 -127.015625 C 62.992188 -112.773438 59.070312 -100.367188 56.1875 -89.796875 C 53.300781 -79.234375 51.859375 -71.550781 51.859375 -66.75 C 60.503906 -80.84375 69.867188 -94.050781 79.953125 -106.375 C 90.046875 -118.695312 100.050781 -128.78125 109.96875 -136.625 C 119.894531 -144.46875 128.863281 -148.390625 136.875 -148.390625 C 141.03125 -148.390625 145.585938 -146.390625 150.546875 -142.390625 C 155.515625 -138.390625 159.757812 -133.664062 163.28125 -128.21875 C 166.800781 -122.78125 168.722656 -117.820312 169.046875 -113.34375 C 169.691406 -106.9375 169.050781 -99.410156 167.125 -90.765625 C 165.207031 -82.117188 163.285156 -73.070312 161.359375 -63.625 C 159.441406 -54.1875 158.484375 -45.304688 158.484375 -36.984375 C 158.484375 -25.453125 162.328125 -19.6875 170.015625 -19.6875 C 170.648438 -19.6875 171.445312 -19.6875 172.40625 -19.6875 C 173.363281 -19.6875 174.328125 -19.847656 175.296875 -20.171875 C 182.660156 -22.085938 190.019531 -25.847656 197.375 -31.453125 C 204.738281 -37.054688 211.140625 -42.660156 216.578125 -48.265625 C 222.023438 -53.867188 225.550781 -57.3125 227.15625 -58.59375 C 229.082031 -60.507812 230.363281 -61.46875 231 -61.46875 C 232.601562 -61.46875 232.125 -58.503906 229.5625 -52.578125 C 227 -46.660156 222.992188 -39.539062 217.546875 -31.21875 C 212.109375 -22.894531 205.785156 -15.289062 198.578125 -8.40625 C 191.378906 -1.519531 183.773438 2.878906 175.765625 4.796875 C 174.484375 5.117188 172.960938 5.359375 171.203125 5.515625 C 169.441406 5.679688 167.765625 5.765625 166.171875 5.765625 Z M 166.171875 5.765625 "/></g></g></g></g></g></g></g></svg>